<svg id="Layer_1" data-name="Layer 1" xmlns="http://www.w3.org/2000/svg" viewBox="0 0 1286.79 1211.88"><defs><style>.cls-1{fill:none;}.cls-2{fill:#0078b7;}.cls-3{fill:#f5a402;}.cls-4{fill:#3eae5d;}.cls-5{fill:#e73873;}.cls-6{fill:#333;}</style></defs><path class="cls-1" d="M915.79,741.85c-1.33-71,36.88-134.42,96.51-173.71C982.86,523.32,942,485.75,893.56,458.86a229.53,229.53,0,0,1-353.38,0c-49.73,27.6-91.41,66.47-121,112.86,55.59,38.67,91.36,98.87,91.36,166.54,0,67.14-35.21,126.91-90,165.62,30.68,47.25,74,86.51,125.55,113.85a229.59,229.59,0,0,1,353.69-6.64c45-26.19,83.14-61.74,111.2-103.76C954.24,869.59,917.06,809.78,915.79,741.85Zm-66.57,29.34H752.17v90.56H681.58V771.19H584.52V705.33h97.06V614.76h70.59v90.57h97.05Z" transform="translate(-69.74 -130.58)"/><path class="cls-2" d="M716.87,541.88a227.86,227.86,0,0,0,176.69-83c-51.73-28.7-112.13-45.23-176.69-45.23a363.53,363.53,0,0,0-176.69,45.23A227.88,227.88,0,0,0,716.87,541.88Z" transform="translate(-69.74 -130.58)"/><path class="cls-2" d="M909.84,436.33a217.2,217.2,0,0,0,18.56-195c-32.57,83.24-115,142.37-211.53,142.37s-179-59.13-211.52-142.37a217.2,217.2,0,0,0,18.56,195c56.38-31.6,122.39-49.79,193-49.79S853.45,404.73,909.84,436.33Z" transform="translate(-69.74 -130.58)"/><ellipse class="cls-2" cx="647.14" cy="70.06" rx="75.08" ry="70.06"/><path class="cls-3" d="M530.24,1040.62a217.11,217.11,0,0,0-16.19,191.12c32.56-83.24,115-142.38,211.52-142.38s179,59.14,211.53,142.38a217.07,217.07,0,0,0-20.75-198.35c-57.79,33.9-126.17,53.53-199.48,53.53C648.93,1086.92,585.22,1070.08,530.24,1040.62Z" transform="translate(-69.74 -130.58)"/><path class="cls-3" d="M725.57,931.17A227.82,227.82,0,0,0,546,1017.73a363.81,363.81,0,0,0,170.84,42.1c67.14,0,129.78-17.88,182.85-48.74A228,228,0,0,0,725.57,931.17Z" transform="translate(-69.74 -130.58)"/><ellipse class="cls-3" cx="655.84" cy="1141.83" rx="75.08" ry="70.06"/><path class="cls-4" d="M394.84,556.82A258.67,258.67,0,0,0,273.18,527a262.69,262.69,0,0,0-84.77,13.93C277.62,571.28,341,648.16,341,738.26s-63.38,167-152.59,197.37a262.69,262.69,0,0,0,84.77,13.93c45.09,0,87.23-11.19,123.13-30.62-34.73-53.09-54.74-115.47-54.74-182.21C341.57,670.94,361,609.41,394.84,556.82Z" transform="translate(-69.74 -130.58)"/><path class="cls-4" d="M510.53,738.26c0-67.67-35.77-127.87-91.36-166.54-30.82,48.3-48.58,104.71-48.58,165,0,61.18,18.24,118.38,49.89,167.15C475.32,865.17,510.53,805.4,510.53,738.26Z" transform="translate(-69.74 -130.58)"/><ellipse class="cls-4" cx="75.08" cy="607.67" rx="75.08" ry="70.06"/><path class="cls-5" d="M915.79,741.85c1.27,67.93,38.45,127.74,95.13,165.48,33.07-49.52,52.23-108,52.23-170.6,0-61.79-18.61-119.51-50.85-168.59C952.67,607.43,914.46,670.84,915.79,741.85Z" transform="translate(-69.74 -130.58)"/><path class="cls-5" d="M1089.76,776.46a333,333,0,0,1-54.19,145.26,259,259,0,0,0,121.48,27.53,262.35,262.35,0,0,0,84.5-15.31C1164.52,909.12,1105.91,849.74,1089.76,776.46Z" transform="translate(-69.74 -130.58)"/><path class="cls-5" d="M1234.17,539.26a262.89,262.89,0,0,0-85-12.54A259.23,259.23,0,0,0,1037,553.84a332.78,332.78,0,0,1,52.6,141.62C1104.91,624.45,1160.23,565.82,1234.17,539.26Z" transform="translate(-69.74 -130.58)"/><ellipse class="cls-5" cx="1211.71" cy="605.31" rx="75.08" ry="70.06"/><path class="cls-6" d="M1092.18,736.73a329.09,329.09,0,0,0-2.61-41.27A332.78,332.78,0,0,0,1037,553.84c-31.61-48.07-75.3-88.46-127.13-117.51-56.39-31.6-122.4-49.79-193-49.79s-136.58,18.19-193,49.79C471,466,426.59,507.45,394.84,556.82,361,609.41,341.57,670.94,341.57,736.73c0,66.74,20,129.12,54.74,182.21,32.93,50.32,79.07,92.28,133.93,121.68s118.69,46.3,186.63,46.3c73.31,0,141.69-19.63,199.48-53.53,48.23-28.3,89.07-66.55,119.22-111.67a331.36,331.36,0,0,0,56.61-185Zm-81.26,170.6c-28.06,42-66.17,77.57-111.2,103.76C846.65,1042,784,1059.83,716.87,1059.83A363.81,363.81,0,0,1,546,1017.73c-51.54-27.34-94.87-66.6-125.55-113.85-31.65-48.77-49.89-106-49.89-167.15,0-60.3,17.76-116.71,48.58-165,29.6-46.39,71.28-85.26,121-112.86a363.53,363.53,0,0,1,176.69-45.23c64.56,0,125,16.53,176.69,45.23,48.46,26.89,89.3,64.46,118.74,109.28,32.24,49.08,50.85,106.8,50.85,168.59C1063.15,799.37,1044,857.81,1010.92,907.33Z" transform="translate(-69.74 -130.58)"/><polygon class="cls-6" points="682.43 484.18 611.84 484.18 611.84 574.74 514.78 574.74 514.78 640.61 611.84 640.61 611.84 731.17 682.43 731.17 682.43 640.61 779.49 640.61 779.49 574.74 682.43 574.74 682.43 484.18"/></svg>